<svg width="86" height="79" viewBox="0 0 86 79" fill="none" xmlns="http://www.w3.org/2000/svg">
<g id="Group 6916">
<g id="Group 6886">
<path id="Vector" d="M83.7932 43.9852C83.7932 48.2798 80.3112 51.7617 76.0165 51.7617C75.7086 51.7617 75.4053 51.7436 75.1064 51.7074C71.6313 66.2168 58.5728 76.9998 42.9991 76.9998C27.4254 76.9998 14.3693 66.2168 10.8918 51.7074C10.5953 51.7436 10.2919 51.7617 9.984 51.7617C5.68929 51.7617 2.20508 48.2798 2.20508 43.9852C2.20508 39.6905 5.68929 36.2064 9.984 36.2064C10.2919 36.2064 10.5953 36.2245 10.8918 36.2607C14.3693 21.7513 27.4254 10.9683 42.9991 10.9683C58.5728 10.9683 71.629 21.7513 75.1064 36.2607C75.4053 36.2245 75.7086 36.2064 76.0165 36.2064C80.3112 36.2064 83.7932 39.6883 83.7932 43.9852Z" stroke="#0AAD73" stroke-width="3" stroke-miterlimit="10"/>
<path id="Vector_2" d="M19.6211 44.9793C19.6211 41.8641 22.1454 39.3398 25.2606 39.3398C28.3758 39.3398 30.9001 41.8641 30.9001 44.9793" stroke="#0AAD73" stroke-width="3" stroke-miterlimit="10"/>
<path id="Vector_3" d="M55.0957 44.9793C55.0957 41.8641 57.62 39.3398 60.7352 39.3398C63.8504 39.3398 66.3747 41.8641 66.3747 44.9793" stroke="#0AAD73" stroke-width="3" stroke-miterlimit="10"/>
<path id="Vector_4" d="M55.0949 51.8845C55.0949 58.5653 49.6795 63.9806 42.9986 63.9806C36.3177 63.9806 30.9023 58.5653 30.9023 51.8845" stroke="#0AAD73" stroke-width="3" stroke-miterlimit="10"/>
<path id="Vector_5" d="M42.9988 10.9683C49.0526 10.9683 53.9586 15.8742 53.9586 21.9279C53.9586 27.9816 49.0526 32.8875 42.9988 32.8875C36.945 32.8875 32.0391 27.9816 32.0391 21.9279" stroke="#0AAD73" stroke-width="3" stroke-miterlimit="10"/>
<path id="Vector_6" d="M42.9985 10.9696C40.5218 10.9696 38.5137 8.96153 38.5137 6.48481C38.5137 4.00809 40.5218 2 42.9985 2C45.4753 2 47.4834 4.00809 47.4834 6.48481" stroke="#0AAD73" stroke-width="3" stroke-miterlimit="10"/>
</g>
</g>
</svg>
