<svg width="58" height="79" viewBox="0 0 58 79" fill="none" xmlns="http://www.w3.org/2000/svg">
<g id="Group 6917">
<g id="Group 6883">
<path id="Vector" d="M56.4109 29.4096C56.4109 40.8317 49.4265 50.6204 39.4949 54.7404V67.6455H18.504V54.7385C8.57428 50.6204 1.58984 40.8317 1.58984 29.4096C1.58984 14.2716 13.8615 2 28.9995 2C44.1374 2 56.4109 14.2716 56.4109 29.4096Z" stroke="#0AAD73" stroke-width="3" stroke-miterlimit="10"/>
<path id="Vector_2" d="M35.4846 67.6455V70.5156C35.4846 74.098 32.5807 77.0001 29.0001 77.0001C25.4177 77.0001 22.5156 74.0962 22.5156 70.5156V67.6455H35.4865H35.4846Z" stroke="#0AAD73" stroke-width="3" stroke-miterlimit="10"/>
<path id="Vector_3" d="M18.502 60.6287H39.4947" stroke="#0AAD73" stroke-width="3" stroke-miterlimit="10"/>
<path id="Vector_4" d="M28.9996 2.65381V12.4162H32.5068C35.2059 12.4162 37.3937 14.604 37.3937 17.3031C37.3937 20.0021 35.2059 22.1899 32.5068 22.1899H28.9996V38.2865H25.4923C22.7933 38.2865 20.6055 40.4743 20.6055 43.1733C20.6055 45.8724 22.7933 48.0602 25.4923 48.0602H28.9996V60.6288" stroke="#0AAD73" stroke-width="3" stroke-miterlimit="10"/>
<path id="Vector_5" d="M56.5848 30.2381H46.8224V33.7454C46.8224 36.4444 44.6346 38.6322 41.9355 38.6322C39.2365 38.6322 37.0487 36.4444 37.0487 33.7454V30.2381H20.9522V26.7308C20.9522 24.0318 18.7643 21.844 16.0653 21.844C13.3663 21.844 11.1784 24.0318 11.1784 26.7308V30.2381H1.41602" stroke="#0AAD73" stroke-width="3" stroke-miterlimit="10"/>
</g>
</g>
</svg>
