<svg width="31" height="31" viewBox="0 0 31 31" fill="none" xmlns="http://www.w3.org/2000/svg">
<g id="Group 6934">
<g id="Group 6932">
<circle id="Ellipse 9" cx="15.1035" cy="15.6914" r="15" fill="#0AAD73"/>
</g>
<g id="Group 6933">
<path id="Vector" d="M23.3724 14.8327C23.7033 15.3573 23.7033 16.0228 23.3724 16.5486C21.6437 19.2905 18.585 21.1141 15.102 21.1141C11.6189 21.1141 8.56281 19.2892 6.83409 16.5474C6.50322 16.0228 6.50322 15.3573 6.83409 14.8327C8.56538 12.0896 11.6214 10.2686 15.102 10.2686C18.5825 10.2686 21.6424 12.0896 23.3724 14.8327Z" stroke="#F3F9FA" stroke-miterlimit="10"/>
<path id="Vector_2" d="M15.1064 19.2386C17.0661 19.2386 18.6549 17.6499 18.6549 15.6901C18.6549 13.7303 17.0661 12.1416 15.1064 12.1416C13.1466 12.1416 11.5579 13.7303 11.5579 15.6901C11.5579 17.6499 13.1466 19.2386 15.1064 19.2386Z" stroke="#F3F9FA" stroke-miterlimit="10"/>
<path id="Vector_3" d="M16.6992 17.3827C17.6341 17.3827 18.392 16.6248 18.392 15.6899C18.392 14.755 17.6341 13.9971 16.6992 13.9971C15.7642 13.9971 15.0063 14.755 15.0063 15.6899C15.0063 16.6248 15.7642 17.3827 16.6992 17.3827Z" fill="#F3F9FA"/>
</g>
</g>
</svg>
