<svg width="67" height="57" viewBox="0 0 67 57" fill="none" xmlns="http://www.w3.org/2000/svg">
<g id="Group 6929">
<path id="Vector" d="M60.5381 19.5466H60.2254L64.5341 34.6482C65.0634 36.5046 65.332 38.426 65.332 40.3557V50.5314C65.332 53.1792 63.1858 55.3254 60.5381 55.3254H39.2421C36.5944 55.3254 34.4482 53.1792 34.4482 50.5314V42.2088C34.4482 39.561 36.5944 37.4148 39.2421 37.4148H46.0178C47.8856 37.4148 49.2339 35.6269 48.7226 33.8308L45.2297 21.5886C44.8845 20.3803 43.7821 19.5482 42.525 19.5482H25.9432C23.2954 19.5482 21.1492 17.402 21.1492 14.7543V6.43164C21.1492 3.7839 23.2954 1.6377 25.9432 1.6377H60.5381C63.1858 1.6377 65.332 3.7839 65.332 6.43164V14.7543C65.332 17.402 63.1858 19.5482 60.5381 19.5482V19.5466Z" stroke="#0AAD73" stroke-width="2" stroke-miterlimit="10"/>
<path id="Vector_2" d="M31.136 19.5479V1.63574" stroke="#0AAD73" stroke-width="2" stroke-miterlimit="10"/>
<path id="Vector_3" d="M34.9353 47.6094H65.1775" stroke="#0AAD73" stroke-width="2" stroke-miterlimit="10"/>
<path id="Vector_4" d="M21.3109 16.3173H17.9174C16.2239 16.3173 14.8511 14.9446 14.8511 13.2511V7.92952C14.8511 6.23601 16.2239 4.86328 17.9174 4.86328H21.3109" stroke="#0AAD73" stroke-width="2" stroke-miterlimit="10"/>
<path id="Vector_5" d="M15.1226 11.2148H0.332001" stroke="#0AAD73" stroke-width="2" stroke-miterlimit="10"/>
<path id="Vector_6" d="M15.1226 9.96777H0.332001" stroke="#0AAD73" stroke-width="2" stroke-miterlimit="10"/>
</g>
</svg>
