<svg width="84" height="68" viewBox="0 0 84 68" fill="none" xmlns="http://www.w3.org/2000/svg">
<g id="Group 6924">
<path id="Vector" d="M58.0835 22.0531C58.0835 25.121 55.5883 27.6162 52.5246 27.6162C49.461 27.6162 46.9615 25.121 46.9615 22.0531V16.2686H52.5246C55.5883 16.2686 58.0835 18.7638 58.0835 21.8317V22.0531ZM52.5246 12.1548H46.9615V2.0569C46.9615 0.919962 46.0415 0 44.9002 0C43.759 0 42.8433 0.919962 42.8433 2.0569V12.1548H38.7209C37.5839 12.1548 36.664 13.0747 36.664 14.2117V22.0531C36.664 25.121 34.1688 27.6162 31.1008 27.6162C28.0328 27.6162 25.5376 25.121 25.5376 22.0531V14.2117C25.5376 13.0747 24.6177 12.1548 23.4807 12.1548C22.3438 12.1548 21.4238 13.0747 21.4238 14.2117V22.0531C21.4238 27.3906 25.7676 31.7344 31.1008 31.7344C36.434 31.7344 40.7821 27.3906 40.7821 22.0531V16.2686H42.8433V22.0531C42.8433 27.3906 47.1871 31.7344 52.5246 31.7344C57.8621 31.7344 62.2016 27.3906 62.2016 22.0531V21.8317C62.2016 16.4942 57.8578 12.1504 52.5246 12.1504" fill="#0AAD73"/>
<path id="Vector_2" d="M73.943 31.7342C68.6055 31.7342 64.2617 27.3905 64.2617 22.0529V14.2116C64.2617 13.0746 65.1817 12.1547 66.3186 12.1547C67.4556 12.1547 68.3755 13.0746 68.3755 14.2116V22.0529C68.3755 25.1209 70.8707 27.6161 73.9387 27.6161C77.0067 27.6161 79.5019 25.1209 79.5019 22.0529C79.5019 20.916 80.4218 19.996 81.5587 19.996C82.6957 19.996 83.6156 20.916 83.6156 22.0529C83.6156 27.3905 79.2719 31.7342 73.9343 31.7342" fill="#0AAD73"/>
<path id="Vector_3" d="M66.3186 8.93948C65.1817 8.93948 64.2617 8.01952 64.2617 6.88258C64.2617 5.74565 65.1817 4.82568 66.3186 4.82568C67.4556 4.82568 68.3755 5.74565 68.3755 6.88258C68.3755 8.01952 67.4556 8.93948 66.3186 8.93948Z" fill="#0AAD73"/>
<path id="Vector_4" d="M9.6813 31.7344C4.34378 31.7344 0 27.3906 0 22.0531V2.06124C0 0.924302 0.919962 0 2.0569 0C3.19383 0 4.11379 0.919962 4.11379 2.0569V22.0531C4.11379 25.121 6.60897 27.6162 9.67696 27.6162C12.7449 27.6162 15.2401 25.121 15.2401 22.0531C15.2401 20.9161 16.1644 19.9962 17.297 19.9962C18.4296 19.9962 19.3539 20.9161 19.3539 22.0531C19.3539 27.3906 15.0101 31.7344 9.67262 31.7344" fill="#0AAD73"/>
<path id="Vector_5" d="M58.0835 57.9097C58.0835 60.9777 55.5883 63.4729 52.5246 63.4729C49.461 63.4729 46.9615 60.9777 46.9615 57.9097V52.1253H52.5246C55.5883 52.1253 58.0835 54.6205 58.0835 57.6884V57.9097ZM52.5246 48.0115H46.9615V37.9136C46.9615 36.7767 46.0415 35.8567 44.9002 35.8567C43.759 35.8567 42.8433 36.7767 42.8433 37.9136V48.0115H38.7209C37.5839 48.0115 36.664 48.9314 36.664 50.0684V57.9097C36.664 60.9777 34.1688 63.4729 31.1008 63.4729C28.0328 63.4729 25.5376 60.9777 25.5376 57.9097V50.0684C25.5376 48.9314 24.6177 48.0115 23.4807 48.0115C22.3438 48.0115 21.4238 48.9314 21.4238 50.0684V57.9097C21.4238 63.2473 25.7676 67.5911 31.1008 67.5911C36.434 67.5911 40.7821 63.2473 40.7821 57.9097V52.1253H42.8433V57.9097C42.8433 63.2473 47.1871 67.5911 52.5246 67.5911C57.8621 67.5911 62.2016 63.2473 62.2016 57.9097V57.6884C62.2016 52.3509 57.8578 48.0115 52.5246 48.0115Z" fill="#0AAD73"/>
<path id="Vector_6" d="M73.943 67.5909C68.6055 67.5909 64.2617 63.2471 64.2617 57.9096V50.0682C64.2617 48.9313 65.1817 48.0114 66.3186 48.0114C67.4556 48.0114 68.3755 48.9313 68.3755 50.0682V57.9096C68.3755 60.9776 70.8707 63.4728 73.9387 63.4728C77.0067 63.4728 79.5019 60.9776 79.5019 57.9096C79.5019 56.7727 80.4218 55.8527 81.5587 55.8527C82.6957 55.8527 83.6156 56.7727 83.6156 57.9096C83.6156 63.2471 79.2719 67.5909 73.9343 67.5909" fill="#0AAD73"/>
<path id="Vector_7" d="M66.3186 44.7962C65.1817 44.7962 64.2617 43.8762 64.2617 42.7393C64.2617 41.6023 65.1817 40.6824 66.3186 40.6824C67.4556 40.6824 68.3755 41.6023 68.3755 42.7393C68.3755 43.8762 67.4556 44.7962 66.3186 44.7962Z" fill="#0AAD73"/>
<path id="Vector_8" d="M9.6813 67.5911C4.34378 67.5911 0 63.2473 0 57.9097V37.9136C0 36.7767 0.919962 35.8567 2.0569 35.8567C3.19383 35.8567 4.11379 36.7767 4.11379 37.9136V57.9097C4.11379 60.9777 6.60897 63.4729 9.67696 63.4729C12.7449 63.4729 15.2401 60.9777 15.2401 57.9097C15.2401 56.7728 16.1644 55.8529 17.297 55.8529C18.4296 55.8529 19.3539 56.7728 19.3539 57.9097C19.3539 63.2473 15.0101 67.5911 9.67262 67.5911" fill="#0AAD73"/>
</g>
</svg>
