<svg width="68" height="79" viewBox="0 0 68 79" fill="none" xmlns="http://www.w3.org/2000/svg">
<g id="Group 6919">
<g id="Group 6885">
<path id="Vector" d="M64.4941 19.3419C65.5979 19.3419 66.5 20.2064 66.5 21.2881V31.7511C66.5 45.1789 59.9814 57.8053 48.9456 65.7638L33.3594 77L18.4027 65.7833C7.74821 57.7922 1.5 45.3961 1.5 32.2485V21.2881C1.5 20.2064 2.4021 19.3419 3.5059 19.3419C3.51255 19.3419 3.5192 19.3419 3.52585 19.3419C16.0267 19.3419 26.9361 12.6519 32.7233 2.7233C33.2863 1.7589 34.7159 1.7589 35.2789 2.7233C41.0661 12.6519 51.9733 19.3419 64.4764 19.3419C64.483 19.3419 64.4897 19.3419 64.4963 19.3419H64.4941Z" stroke="#0AAD73" stroke-width="3" stroke-miterlimit="10"/>
<path id="Vector_2" d="M21.7363 35.3092L31.2981 44.6796L48.5444 27.7786" stroke="#0AAD73" stroke-width="3" stroke-miterlimit="10"/>
</g>
</g>
</svg>
