<svg width="161" height="125" viewBox="0 0 161 125" fill="none" xmlns="http://www.w3.org/2000/svg">
<g id="Group 6903">
<path id="Vector" d="M45.237 124.428C20.56 124.428 0.5 104.394 0.5 79.7493V72.0379C0.5 66.7909 4.77208 62.5244 9.99936 62.5244C15.2266 62.5244 19.5252 66.7909 19.5252 72.0379V79.7493C19.5252 93.9003 31.0677 105.428 45.237 105.428C59.4064 105.428 70.9489 93.9003 70.9489 79.7493C70.9489 74.5024 75.2209 70.2359 80.4747 70.2359C85.7285 70.2359 89.974 74.5024 89.974 79.7493C89.974 104.394 69.914 124.428 45.237 124.428Z" fill="#F26E52"/>
<path id="Vector_2" d="M9.99936 19.2234C4.74555 19.2234 0.5 14.9834 0.5 9.73644C0.5 4.48946 4.74555 0.249512 9.99936 0.249512C15.2532 0.249512 19.4986 4.48946 19.4986 9.73644C19.4986 14.9834 15.2532 19.2234 9.99936 19.2234Z" fill="#F26E52"/>
<path id="Vector_3" d="M151.001 19.2234C145.747 19.2234 141.502 14.9834 141.502 9.73644C141.502 4.48946 145.747 0.249512 151.001 0.249512C156.255 0.249512 160.501 4.48946 160.501 9.73644C160.501 14.9834 156.255 19.2234 151.001 19.2234Z" fill="#F26E52"/>
<path id="Vector_4" d="M160.499 72.0085V79.7465C160.499 104.391 140.413 124.425 115.762 124.425C91.1119 124.425 71.0254 104.391 71.0254 79.7465V28.7076C71.0254 23.4607 75.2974 19.2207 80.5247 19.2207C85.7519 19.2207 90.0505 23.4872 90.0505 28.7076V79.7465C90.0505 93.8974 101.567 105.425 115.736 105.425C129.905 105.425 141.448 93.8974 141.448 79.7465V72.0085C141.448 66.7615 145.72 62.5215 150.974 62.5215C156.227 62.5215 160.473 66.788 160.473 72.0085" fill="#F26E52"/>
</g>
</svg>
