<svg width="68" height="79" viewBox="0 0 68 79" fill="none" xmlns="http://www.w3.org/2000/svg">
<g id="Group 6918">
<g id="Group 6884">
<path id="Vector" d="M41.9856 49.9215L51.4016 40.5056V69.45C51.4016 73.6201 40.3806 77 26.7848 77C13.1889 77 2.16797 73.6201 2.16797 69.45V9.54997C2.16797 5.37989 13.1889 2 26.7848 2C40.3806 2 51.4016 5.37989 51.4016 9.54997V24.2585L42.7537 32.9064" stroke="#0AAD73" stroke-width="3" stroke-miterlimit="10"/>
<path id="Vector_2" d="M51.4016 10.0867C51.4016 14.2568 40.3806 17.6366 26.7848 17.6366C13.1889 17.6366 2.16797 14.2543 2.16797 10.0867" stroke="#0AAD73" stroke-width="3" stroke-miterlimit="10"/>
<path id="Vector_3" d="M27.8302 6.62324H22.897C19.4556 6.62324 16.6641 7.4799 16.6641 8.5335C16.6641 10.2468 21.196 11.6377 26.784 11.6377C32.372 11.6377 36.904 10.2493 36.904 8.5335V8.70582C36.904 5.34809 28.0296 2.62793 17.0825 2.62793" stroke="#0AAD73" stroke-width="3" stroke-miterlimit="10"/>
<path id="Vector_4" d="M10.293 23.1704V52.137" stroke="#0AAD73" stroke-width="3" stroke-miterlimit="10"/>
<path id="Vector_5" d="M18.7422 39.9097V68.8763" stroke="#0AAD73" stroke-width="3" stroke-miterlimit="10"/>
<path id="Vector_6" d="M42.7544 32.906L51.4023 24.2581L56.9829 18.6799C55.8456 19.8172 56.7416 22.5571 58.9842 24.7997C61.2268 27.0447 63.9691 27.9408 65.1064 26.801L41.9863 49.9211" stroke="#0AAD73" stroke-width="3" stroke-miterlimit="10"/>
<path id="Vector_7" d="M65.339 26.5702L65.1051 26.8016C63.9678 27.9413 61.2255 27.0453 58.9829 24.8002C56.7403 22.5576 55.8443 19.8178 56.9816 18.6805L57.2154 18.4442C58.3527 17.3069 61.095 18.2029 63.3376 20.448C65.5802 22.6881 66.4763 25.4304 65.339 26.5702Z" stroke="#0AAD73" stroke-width="3" stroke-miterlimit="10"/>
</g>
</g>
</svg>
